<svg width="32" height="32" viewBox="0 0 32 32" fill="none" xmlns="http://www.w3.org/2000/svg">
<path fill-rule="evenodd" clip-rule="evenodd" d="M6.4 0H32V25.6C32 29.1346 29.1346 32 25.6 32H0V6.4C0 2.86538 2.86538 0 6.4 0ZM23.4139 16.0085L17.4896 10.0843C16.6716 9.2663 15.3454 9.2663 14.5275 10.0843L8.6032 16.0085L14.5275 21.9328C15.3454 22.7508 16.6716 22.7508 17.4896 21.9328L23.4139 16.0085ZM27.8571 11.5653L24.8949 8.6032C24.486 8.19422 23.8229 8.19422 23.4139 8.6032L20.4517 11.5653L23.4139 14.5275C23.8229 14.9365 24.486 14.9365 24.8949 14.5275L27.8571 11.5653ZM11.5653 20.4517L8.6032 17.4896C8.19422 17.0806 7.53112 17.0806 7.12214 17.4896L4.16 20.4517L7.12214 23.4139C7.53112 23.8229 8.19422 23.8229 8.6032 23.4139L11.5653 20.4517Z" fill="#222222"/>
</svg>
